#!OML:ASF F:\VICON\USERDATA\INSTALL\rory3\rory3.ASF
:FULLY-SPECIFIED
:DEGREES
630
root -5.40405 15.5673 -8.94666 -144.063 -76.573 -201.314
lowerback -8.88674 1.7936 -4.40726
upperback -5.91376 2.41612 -1.93303
thorax -1.27008 1.18338 0.654742
lowerneck -8.90921 -5.17147 -6.40411
upperneck 37.1525 -11.3491 7.17737
head 15.3077 -5.59138 2.17967
rclavicle -2.56166e-014 1.91951e-014
rhumerus -22.2499 -36.1212 -65.3748
rradius 37.234
rwrist -72.8056
rhand -12.2138 10.4283
rfingers 7.12502
rthumb 13.851 -19.0905
lclavicle -2.56166e-014 1.91951e-014
lhumerus -40.2072 16.6549 53.7016
lradius 64.9175
lwrist 62.6292
lhand 3.0009 20.7822
lfingers 7.12502
lthumb 28.4614 48.6373
rfemur 285.247 -29.9295 -336.405
rtibia 49.169
rfoot 126.797 -211.33
rtoes 60.8598
lfemur -15.5608 8.10554 -20.9129
ltibia 41.4826
lfoot 128.187 -156.392
ltoes 15.8194
631
root -5.5264 15.4867 -9.09236 -148.831 -74.6581 -196.166
lowerback -9.3542 1.96945 -4.18548
upperback -6.04336 2.63537 -1.96934
thorax -1.14594 1.27689 0.523528
lowerneck -9.19458 -4.90524 -5.57027
upperneck 37.2462 -11.0411 6.83438
head 15.3002 -5.39187 1.92899
rclavicle 2.25186e-016 3.926e-015
rhumerus -22.9487 -37.2218 -65.6406
rradius 36.0975
rwrist -71.7643
rhand -10.7797 10.1406
rfingers 7.12502
rthumb 15.2327 -19.2786
lclavicle 2.25186e-016 3.926e-015
lhumerus -40.1948 14.6365 55.2668
lradius 64.7009
lwrist 62.1434
lhand 3.77735 19.1471
lfingers 7.12502
lthumb 29.2031 46.8757
rfemur 282.418 -31.6569 -330.736
rtibia 49.7558
rfoot 133.657 -216.618
rtoes 60.1791
lfemur -14.9082 9.03651 -20.1551
ltibia 41.97
lfoot 127.817 -156.04
ltoes 13.2006
632
root -5.63851 15.3906 -9.24853 -149.309 -72.7391 -195.361
lowerback -9.47837 1.93574 -4.95072
upperback -6.43745 2.59341 -2.16697
thorax -1.5236 1.26731 0.735754
lowerneck -9.16827 -4.60464 -5.27944
upperneck 37.3842 -10.7217 6.80862
head 15.3093 -5.2434 1.91766
rclavicle -2.25496e-015 -3.49861e-014
rhumerus -23.9614 -36.5724 -65.8902
rradius 35.1661
rwrist -72.2588
rhand -9.98761 11.3696
rfingers 7.12502
rthumb 15.9956 -17.99
lclavicle -2.25496e-015 -3.49861e-014
lhumerus -40.449 12.2909 56.5719
lradius 64.5319
lwrist 62.2622
lhand 5.69465 18.6389
lfingers 7.12502
lthumb 31.0323 46.0342
rfemur 279.698 -33.003 -326.664
rtibia 50.5359
rfoot 150.947 -221.714
rtoes 58.002
lfemur -14.3799 8.7805 -20.4263
ltibia 42.4637
lfoot 126.92 -155.795
ltoes 10.8892
633
root -5.74457 15.2994 -9.33787 -152.125 -71.1691 -191.781
lowerback -9.70231 1.80065 -4.09777
upperback -6.91765 2.30913 -1.8656
thorax -1.86171 1.09897 0.548643
lowerneck -9.39075 -4.08255 -5.96164
upperneck 37.7374 -9.9514 7.04227
head 15.5239 -5.00159 2.25645
rclavicle -2.37889e-014 -1.49089e-014
rhumerus -24.3403 -35.7959 -66.1104
rradius 34.0026
rwrist -71.6802
rhand -8.43221 11.7952
rfingers 7.12502
rthumb 17.4929 -17.4377
lclavicle -2.37889e-014 -1.49089e-014
lhumerus -41.2077 10.7589 57.7971
lradius 64.3744
lwrist 62.2782
lhand 8.21777 18.625
lfingers 7.12502
lthumb 33.4341 45.5326
rfemur 276.016 -34.46 -320.346
rtibia 51.4012
rfoot 179.49 -221.424
rtoes 46.0903
lfemur -14.1295 8.50312 -19.9554
ltibia 42.8987
lfoot 126.037 -155.295
ltoes 8.0759
634
root -5.84576 15.2101 -9.50318 -155.266 -69.2215 -187.931
lowerback -10.0019 2.05779 -4.01671
upperback -7.47931 2.58239 -1.88386
thorax -2.29722 1.22085 0.501701
lowerneck -8.81198 -3.71074 -3.68382
upperneck 37.5335 -9.59054 6.03727
head 15.0401 -4.69883 1.5013
rclavicle 1.49461e-014 -5.36719e-015
rhumerus -26.054 -36.7792 -65.6356
rradius 33.0308
rwrist -70.2195
rhand -6.17453 11.1624
rfingers 7.12502
rthumb 19.6646 -17.863
lclavicle 1.49461e-014 -5.36719e-015
lhumerus -41.2286 7.29347 59.2319
lradius 64.2006
lwrist 62.5298
lhand 9.18873 18.1683
lfingers 7.12502
lthumb 34.3565 44.8722
rfemur 274.198 -33.8367 -315.987
rtibia 52.3643
rfoot 183.344 -216.923
rtoes 42.4595
lfemur -13.5738 8.47451 -19.0229
ltibia 43.2505
lfoot 125.358 -155.156
ltoes 5.41399
635
root -5.97062 15.1236 -9.63188 -157.182 -67.1955 -186.126
lowerback -9.71774 1.85681 -3.8069
upperback -7.71327 2.25153 -1.81523
thorax -2.67957 1.04488 0.418004
lowerneck -8.52236 -2.92297 -2.26061
upperneck 37.4147 -8.45707 5.25638
head 14.7069 -4.1486 1.10764
rclavicle -3.61043e-014 3.81667e-014
rhumerus -26.7029 -36.6827 -65.9289
rradius 32.1056
rwrist -68.8626
rhand -3.98247 9.61313
rfingers 7.12502
rthumb 21.7708 -19.1825
lclavicle -3.61043e-014 3.81667e-014
lhumerus -42.0228 4.98212 60.3964
lradius 64.2018
lwrist 62.8143
lhand 10.1071 17.5766
lfingers 7.12502
lthumb 35.228 44.0791
rfemur 272.953 -34.1747 -312.521
rtibia 53.4728
rfoot 187.466 -211.096
rtoes 34.6332
lfemur -11.8235 8.51912 -18.6434
ltibia 43.3998
lfoot 125.218 -154.816
ltoes 1.8976
